<svg xmlns="http://www.w3.org/2000/svg" width="126.23" height="40" viewBox="0 0 126.23 40">
  <g id="logo" transform="translate(-1.829 -1)">
    <g id="组_7536" data-name="组 7536" transform="translate(1.829 1)">
      <path id="路径_1930" data-name="路径 1930" d="M38.842,30.544a.645.645,0,0,1-.586-.352,2.7,2.7,0,0,1-1.29-2.345.886.886,0,0,1,.117-.469,21.438,21.438,0,0,0,.938-2.931,13.775,13.775,0,0,0,.352-4.455,15.308,15.308,0,0,0-1.407-5.627A24.254,24.254,0,0,0,33.683,9.91a16.711,16.711,0,0,0-5.158-3.752,18.384,18.384,0,0,0-5.51-1.524,17.042,17.042,0,0,0-5.979.586,15.777,15.777,0,0,0-6.565,3.634,16,16,0,0,0-4.455,6.682,15.2,15.2,0,0,0-.938,4.338v2.11a19.421,19.421,0,0,0,.938,4.807,3.248,3.248,0,0,1,.117,2.345,2.977,2.977,0,0,1-1.524,1.641A19.7,19.7,0,0,1,6.836,7.565,20.048,20.048,0,0,1,21.608,1,19.274,19.274,0,0,1,34.035,5.455,19.638,19.638,0,0,1,38.842,30.544Z" transform="translate(-1.829 -1)" fill="#bea17b"/>
      <g id="组_7535" data-name="组 7535" transform="translate(13.802 7.151)">
        <path id="路径_1931" data-name="路径 1931" d="M19.045,11.789A2.345,2.345,0,1,0,16.7,9.445,2.352,2.352,0,0,0,19.045,11.789Z" transform="translate(-13.067 -7.1)" fill="#bea17b"/>
        <path id="路径_1932" data-name="路径 1932" d="M13.834,18.01c-.821,3.869.586,7.386,3.283,7.855A4.077,4.077,0,0,0,19.7,25.4a3.945,3.945,0,0,0,2.579.469c2.7-.469,4.1-3.986,3.283-7.855a8.718,8.718,0,0,0-3.634-5.51,2.262,2.262,0,0,0-.352,1.172,3.455,3.455,0,0,0,.586,1.524,13.109,13.109,0,0,1,1.055,1.993c.469,1.876,0,3.634-1.172,3.986a1.323,1.323,0,0,1-1.29-.352,1.408,1.408,0,0,0-1.641,0,1.47,1.47,0,0,1-1.29.352c-1.172-.352-1.641-2.11-1.172-3.986a9.407,9.407,0,0,1,1.172-2.11,3.611,3.611,0,0,0,.586-1.407,1.981,1.981,0,0,0-.352-1.172A7.4,7.4,0,0,0,13.834,18.01Z" transform="translate(-13.601 -6.169)" fill="#bea17b"/>
      </g>
      <path id="路径_1933" data-name="路径 1933" d="M30.875,25.686a22.47,22.47,0,0,0-6.682-.234c.234.117.586.234.821.352a18.4,18.4,0,0,1,4.338,2.814,10.57,10.57,0,0,1,1.172,1.055c.117.117.234.234.117.469s-.234.352-.352.352a.409.409,0,0,1-.234-.117h0l-.352-.352A19.9,19.9,0,0,0,16.689,25.1,19.255,19.255,0,0,0,5.2,28.852a19.965,19.965,0,0,0,16.882,7.972,20,20,0,0,0,10.551-3.752,18.309,18.309,0,0,0,4.689-4.924A21.575,21.575,0,0,0,30.875,25.686Z" transform="translate(-1.248 3.154)" fill="#bea17b"/>
    </g>
    <g id="组_7540" data-name="组 7540" transform="translate(48.807 10.496)">
      <g id="组_7537" data-name="组 7537" transform="translate(0.117 19.93)">
        <path id="路径_1934" data-name="路径 1934" d="M44.7,31.458c-1.055,0-1.759-.821-1.759-2.227S43.641,27,44.7,27a1.628,1.628,0,0,1,1.172.586L46.338,27a2.375,2.375,0,0,0-1.641-.7A2.754,2.754,0,0,0,42,29.348c0,1.993,1.172,3.048,2.579,3.048a2.55,2.55,0,0,0,1.876-.821l-.469-.586A1.875,1.875,0,0,1,44.7,31.458Z" transform="translate(-42 -26.066)" fill="#bea17b"/>
        <path id="路径_1935" data-name="路径 1935" d="M50.6,28.662H48.138V26.2H47.2v5.979h.938v-2.7H50.6v2.7h.938V26.2H50.6Z" transform="translate(-41.104 -26.083)" fill="#bea17b"/>
        <path id="路径_1936" data-name="路径 1936" d="M53.993,26.2,52,32.062h.938l.469-1.641h2.11l.469,1.641h.938L54.931,26.2Zm1.29,3.517H53.641l.234-.821c.234-.586.352-1.29.586-1.993h0c.234.7.352,1.29.586,1.993Z" transform="translate(-40.276 -26.083)" fill="#bea17b"/>
        <path id="路径_1937" data-name="路径 1937" d="M65.448,28.914l-.821-.352c-.469-.234-.938-.352-.938-.938,0-.469.352-.821,1.055-.821a1.883,1.883,0,0,1,1.29.586L66.5,26.8a2.386,2.386,0,0,0-1.759-.7,1.779,1.779,0,0,0-1.993,1.641,1.651,1.651,0,0,0,1.172,1.524l.821.352c.586.234.938.352.938.938,0,.469-.352.821-1.172.821a1.89,1.89,0,0,1-1.524-.7l-.586.586a2.825,2.825,0,0,0,2.11.821,1.9,1.9,0,0,0,2.11-1.759C66.621,29.734,66.152,29.265,65.448,28.914Z" transform="translate(-38.484 -26.1)" fill="#bea17b"/>
        <path id="路径_1938" data-name="路径 1938" d="M70.8,28.662H68.338V26.2H67.4v5.979h.938v-2.7H70.8v2.7h.938V26.2H70.8Z" transform="translate(-37.622 -26.083)" fill="#bea17b"/>
        <path id="路径_1939" data-name="路径 1939" d="M72.9,32.162a1.009,1.009,0,0,0,.938-.938V26.3H72.9Z" transform="translate(-36.674 -26.066)" fill="#bea17b"/>
        <path id="路径_1940" data-name="路径 1940" d="M79.379,30.286c0,.821-.352,1.172-.938,1.172a1.2,1.2,0,0,1-.938-.586l-.7.469a1.73,1.73,0,0,0,1.759.938A1.693,1.693,0,0,0,80.317,30.4V26.3h-.938Z" transform="translate(-36.002 -26.066)" fill="#bea17b"/>
        <path id="路径_1941" data-name="路径 1941" d="M82.438,29.483h2.227v-.821H82.438V27.021h2.579V26.2H81.5v5.979h3.634v-.821h-2.7Z" transform="translate(-35.191 -26.083)" fill="#bea17b"/>
        <path id="路径_1942" data-name="路径 1942" d="M90.893,29.348c-.117.586-.234,1.29-.352,1.876h0c-.117-.586-.234-1.29-.352-1.876L89.369,26.3h-.821l-.821,3.048c-.117.586-.234,1.29-.352,1.876h0l-.352-1.876L86.438,26.3H85.5l1.172,5.862h1.172l.821-3.283a5.885,5.885,0,0,0,.234-1.407h0c.117.469.117.938.234,1.407l.821,3.283h1.172L92.3,26.3h-.938Z" transform="translate(-34.502 -26.066)" fill="#bea17b"/>
        <path id="路径_1943" data-name="路径 1943" d="M93.538,29.483h2.11v-.821h-2.11V27.021h2.579V26.2H92.6v5.979h3.517v-.821H93.538Z" transform="translate(-33.278 -26.083)" fill="#bea17b"/>
        <path id="路径_1944" data-name="路径 1944" d="M98.038,26.2H97.1v5.979h3.4v-.821H98.038Z" transform="translate(-32.503 -26.083)" fill="#bea17b"/>
        <path id="路径_1945" data-name="路径 1945" d="M105.4,27.959c0-1.29-.938-1.759-2.11-1.759H101.3v5.862a1.009,1.009,0,0,0,.938-.938V29.717h.938l1.29,2.345h1.055L104.114,29.6A1.547,1.547,0,0,0,105.4,27.959Zm-2.228,1.055h-.938V27.021h.938c.821,0,1.29.234,1.29.938S104,29.014,103.176,29.014Z" transform="translate(-31.779 -26.083)" fill="#bea17b"/>
        <path id="路径_1946" data-name="路径 1946" d="M108.414,27.824c-.234.469-.352.821-.586,1.29h0c-.234-.469-.352-.821-.586-1.29l-.7-1.524H105.6l1.759,3.634v2.227h.938V29.934l1.759-3.634h-.938Z" transform="translate(-31.037 -26.066)" fill="#bea17b"/>
        <path id="路径_1947" data-name="路径 1947" d="M60.8,29.014v1.641l-2.462-4.338H57.4v5.862a.8.8,0,0,0,.821-.821h0V27.841l2.462,4.338h.938V26.2h-.938v2.814Z" transform="translate(-39.346 -26.083)" fill="#bea17b"/>
      </g>
      <path id="路径_1948" data-name="路径 1948" d="M60.79,9.334,60.672,9.1,59.5,9.921l.117.234a2.155,2.155,0,0,0,1.641.938h.117V26.1h.117a2.4,2.4,0,0,0,2.11-2.345V11.093H77.2V9.686H61.493A1,1,0,0,1,60.79,9.334Z" transform="translate(-38.866 -9.1)" fill="#bea17b"/>
      <path id="路径_1949" data-name="路径 1949" d="M63.8,25.565h9.5a1.976,1.976,0,0,0,1.993-1.993V12.2H63.8Zm2.227-11.958h7.034v9.731a.8.8,0,0,1-.821.821H66.027Z" transform="translate(-38.125 -8.566)" fill="#bea17b"/>
      <path id="路径_1950" data-name="路径 1950" d="M76.9,24.3l.352,1.407,5.862-1.524-.352-1.407L81,23.248V18.207h1.759V16.682H81V11.524H83V10H77.017v1.524h2.11v5.158H77.369v1.524h1.759v5.51Z" transform="translate(-35.867 -8.945)" fill="#bea17b"/>
      <path id="路径_1951" data-name="路径 1951" d="M87.189,26.1a2.226,2.226,0,0,0,2.228-2.227V15.9h4.221V14.376H89.417V12.148h2.462a2.624,2.624,0,0,0,1.759-.938l.117-.234-1.172-.821-.117.234a.709.709,0,0,1-.7.352H89.534V9.1H87.307v1.641H85.783l.117-.469.117-.469H84.141l-.234,1.172c-.117.352-.234.586-.586.586h-.352v1.524h.821c.586,0,.938-.352,1.29-.938h2.11v2.227H82.5V15.9h4.689V26.1Z" transform="translate(-34.902 -9.1)" fill="#bea17b"/>
      <path id="路径_1952" data-name="路径 1952" d="M104.348,19.862h3.517a2.209,2.209,0,0,0,.938-.234,1.65,1.65,0,0,0,.821-.7l.117-.234-1.172-.821-.117.234a.709.709,0,0,1-.7.352h-3.634V15.407h6.448V14H95.321v1.407h6.565v3.048h-6.1v1.407h6.1V23.5H94.5V24.9h17V23.5h-7.386V19.862Z" transform="translate(-32.833 -8.255)" fill="#bea17b"/>
      <path id="路径_1953" data-name="路径 1953" d="M105.117,20.1a1.852,1.852,0,0,0,1.876,1.876h.117V19.4H105v.7Z" transform="translate(-31.024 -7.325)" fill="#bea17b"/>
      <path id="路径_1954" data-name="路径 1954" d="M104.365,10.624V9.1h-2.228v1.524H94.4v3.517h2.228v-2.11h13.248v2.11H112.1V10.624Z" transform="translate(-32.851 -9.1)" fill="#bea17b"/>
      <path id="路径_1955" data-name="路径 1955" d="M91.393,20.389V15.7H89.4v4.924c0,.352,0,.586.117.7v.117c.352,1.876,1.407,3.165,2.7,3.283V22.734a3.986,3.986,0,0,1-.821-1.759C91.393,20.741,91.393,20.507,91.393,20.389Z" transform="translate(-33.713 -7.962)" fill="#bea17b"/>
      <path id="路径_1956" data-name="路径 1956" d="M85.6,21.327a1.487,1.487,0,0,1,.117-.7V15.7H83.721v5.158a2.731,2.731,0,0,1-.821,1.759V24.61c1.29,0,2.345-1.29,2.7-3.283Z" transform="translate(-34.833 -7.962)" fill="#bea17b"/>
      <g id="组_7539" data-name="组 7539">
        <path id="路径_1957" data-name="路径 1957" d="M48.234,19.22a.756.756,0,0,0,.7.7h3.283V21.1h-4.1V22.62h4.1v3.165h2.228V22.62h4.1V21.1h-4.1V19.924h3.283a.609.609,0,0,0,.469-.234.889.889,0,0,0,.234-.469V11.6H48v7.62Zm6.331-6.1h1.759V15H54.565Zm0,3.283h1.759v1.759a.311.311,0,0,1-.352.352H54.565Zm-4.1-3.283h1.759V15H50.462Zm0,3.283h1.759v2.11H50.814a.311.311,0,0,1-.352-.352Z" transform="translate(-40.849 -8.669)" fill="#bea17b"/>
        <path id="路径_1958" data-name="路径 1958" d="M57.538,10.155l.117-.234L56.483,9.1l-.117.234a.836.836,0,0,1-.7.352H53.2V11.21h2.462A3.046,3.046,0,0,0,57.538,10.155Z" transform="translate(-39.952 -9.1)" fill="#bea17b"/>
        <path id="路径_1959" data-name="路径 1959" d="M50.293,11.093h2.462V9.686H50.293a.836.836,0,0,1-.7-.352L49.472,9.1,48.3,9.921l.117.234A2.129,2.129,0,0,0,50.293,11.093Z" transform="translate(-40.797 -9.1)" fill="#bea17b"/>
        <g id="组_7538" data-name="组 7538" transform="translate(0 0.586)">
          <rect id="矩形_5252" data-name="矩形 5252" width="6.917" height="1.524" transform="translate(0 1.876)" fill="#bea17b"/>
          <path id="路径_1960" data-name="路径 1960" d="M48.679,24.372v1.641a9.571,9.571,0,0,1-2.931-1.172,10190.709,10190.709,0,0,0-.234-.234l-.234-.234A7.788,7.788,0,0,1,42.7,18.744V9.6h1.993v9.027a6.937,6.937,0,0,0,.469,2.345l.352.7A5.524,5.524,0,0,0,48.679,24.372Z" transform="translate(-41.762 -9.6)" fill="#bea17b"/>
          <path id="路径_1961" data-name="路径 1961" d="M41.9,24.372v1.641a9.571,9.571,0,0,0,2.931-1.172,10190.709,10190.709,0,0,1,.234-.234l.234-.234a7.788,7.788,0,0,0,2.579-5.627V9.6H45.886v9.027a6.937,6.937,0,0,1-.469,2.345l-.352.7A5.524,5.524,0,0,1,41.9,24.372Z" transform="translate(-41.9 -9.6)" fill="#bea17b"/>
        </g>
      </g>
    </g>
  </g>
</svg>
