<svg xmlns="http://www.w3.org/2000/svg" width="32" height="32" viewBox="0 0 32 32">
  <g id="组_7589" data-name="组 7589" transform="translate(-1201 -289)">
    <rect id="矩形_5254" data-name="矩形 5254" width="32" height="32" transform="translate(1201 289)" fill="#fff" opacity="0"/>
    <path id="箭头_下" data-name="箭头 下" d="M71.62,295a4.342,4.342,0,0,1-3.168-1.358l-8.6-9.655a1.5,1.5,0,0,1,2.263-1.961l8.75,9.655a1.152,1.152,0,0,0,.754.3,1.3,1.3,0,0,0,.905-.452l8.3-9.655a1.5,1.5,0,1,1,2.263,1.961l-8.3,9.655A3.61,3.61,0,0,1,71.62,295Z" transform="translate(1288.469 592.996) rotate(180)"/>
  </g>
</svg>
