<svg xmlns="http://www.w3.org/2000/svg" width="32" height="32" viewBox="0 0 32 32">
  <g id="组_7592" data-name="组 7592" transform="translate(-1201 -248)">
    <rect id="矩形_5253" data-name="矩形 5253" width="32" height="32" transform="translate(1201 248)" fill="#fff" opacity="0"/>
    <path id="箭头_下" data-name="箭头 下" d="M12.151,0A4.342,4.342,0,0,0,8.983,1.358l-8.6,9.655a1.466,1.466,0,0,0,.151,2.112,1.466,1.466,0,0,0,2.112-.151L11.4,3.319a1.152,1.152,0,0,1,.754-.3,1.3,1.3,0,0,1,.905.453l8.3,9.655a1.5,1.5,0,1,0,2.263-1.961l-8.3-9.655A3.61,3.61,0,0,0,12.151,0Z" transform="translate(1223.659 252) rotate(90)"/>
  </g>
</svg>
