<svg xmlns="http://www.w3.org/2000/svg" width="32" height="32" viewBox="0 0 32 32">
  <g id="组_7593" data-name="组 7593" transform="translate(-1201 -248)">
    <rect id="矩形_5253" data-name="矩形 5253" width="32" height="32" transform="translate(1201 248)" fill="#fff" opacity="0"/>
    <g id="不显示" transform="translate(1108.203 -51.974)">
      <path id="路径_1734" data-name="路径 1734" d="M119.244,310.37a.925.925,0,0,1,1.3,1.312,15.871,15.871,0,0,1-23.5,0,.925.925,0,0,1,1.3-1.312,14.033,14.033,0,0,0,20.894,0Z" transform="translate(0)"/>
      <path id="路径_1735" data-name="路径 1735" d="M136.532,437.7a.925.925,0,0,0-1.4,1.2l.09.1,3.1,3.1a.925.925,0,0,0,1.4-1.2l-.09-.1Zm-16.1,0a.925.925,0,0,1,1.4,1.2l-.09.1-3.093,3.093a.925.925,0,0,1-1.4-1.2l.09-.1Z" transform="translate(-19.683 -123.632)"/>
      <path id="路径_1736" data-name="路径 1736" d="M353.2,480.405a.925.925,0,0,1,1.818.326l-.022.123-1.233,4.932a.925.925,0,0,1-1.818-.326l.022-.123Zm6.728,0a.925.925,0,0,0-1.818.326l.022.123,1.233,4.932a.925.925,0,0,0,1.818-.326l-.022-.123Z" transform="translate(-247.771 -164.671)"/>
    </g>
  </g>
</svg>
