<svg xmlns="http://www.w3.org/2000/svg" width="32" height="32" viewBox="0 0 32 32">
  <g id="组_7598" data-name="组 7598" transform="translate(-1201 -440)">
    <rect id="矩形_5253" data-name="矩形 5253" width="32" height="32" transform="translate(1201 440)" fill="#fff" opacity="0"/>
    <g id="组_7597" data-name="组 7597" transform="translate(260 -142)">
      <circle id="椭圆_864" data-name="椭圆 864" cx="12" cy="12" r="12" transform="translate(945 586)" fill="#28c445"/>
      <path id="微信_1_" data-name="微信 (1)" d="M78.818,154.568a4.591,4.591,0,0,1,.511.032c-.459-2.139-2.746-3.728-5.357-3.728-2.918,0-5.309,1.989-5.309,4.515a4.353,4.353,0,0,0,2.125,3.584l-.531,1.6,1.856-.931a9.092,9.092,0,0,0,1.86.266c.167,0,.332-.008.5-.021a3.953,3.953,0,0,1-.164-1.113,4.349,4.349,0,0,1,4.514-4.2Zm-2.855-1.439a.663.663,0,1,1,0,1.327.675.675,0,1,1,0-1.327Zm-3.715,1.327a.675.675,0,1,1,0-1.327.663.663,0,0,1,0,1.327Zm11.415,4.251c0-2.123-2.124-3.853-4.51-3.853-2.526,0-4.516,1.73-4.516,3.853s1.99,3.853,4.516,3.853a6.669,6.669,0,0,0,1.593-.267l1.456.8-.4-1.327A4.023,4.023,0,0,0,83.663,158.707Zm-5.973-.664a.531.531,0,1,1,0-1.062.545.545,0,1,1,0,1.062Zm2.92,0a.531.531,0,0,1,0-1.062.545.545,0,1,1,0,1.062Z" transform="translate(880.837 441.128)" fill="#fff"/>
    </g>
  </g>
</svg>
